<svg xmlns="http://www.w3.org/2000/svg" width="306" height="203" xml:space="preserve"><path d="M101.468 6.209c-.72-.239-1.53-.419-2.43-.54-.9-.118-2.011-.18-3.33-.18-2.281 0-4.022.72-5.22 2.16-1.201 1.44-2.461 3.001-3.78 4.68-1.561 2.16-3.181 4.531-4.86 7.11-1.682 2.582-3.181 5.071-4.5 7.47-1.201 2.042-2.61 4.472-4.23 7.29-1.62 2.821-3.33 5.822-5.13 9-1.8 3.181-3.631 6.39-5.49 9.63-1.862 3.24-3.631 6.3-5.31 9.18-2.88 4.801-5.791 8.55-8.73 11.25-2.942 2.7-6.03 4.95-9.27 6.75-.72.36-1.142.72-1.26 1.08-.121.36.36.54 1.44.54 3.358-.36 7.38-.72 12.06-1.08 4.68-.36 9.27-.689 13.77-.99 4.5-.298 8.55-.568 12.15-.81 3.6-.239 6.12-.36 7.56-.36h2.34c1.08 0 2.16.031 3.24.09 1.08.062 2.098.121 3.06.18.959.062 1.679.152 2.16.27 1.918.48 2.88 1.322 2.88 2.52 0 .602-.27 1.772-.81 3.51s-1.052 3.088-1.53 4.05c-.242 0-.36-.242-.36-.72 0-.602-.09-1.201-.27-1.8-.18-.602-.63-1.021-1.35-1.26-1.8-.72-3.842-1.26-6.12-1.62-2.281-.36-4.621-.63-7.02-.81-2.402-.18-4.742-.298-7.02-.36-2.281-.059-4.441-.09-6.48-.09-6.961 0-12.811.121-17.55.36-4.742.242-8.73.54-11.97.9s-5.881.751-7.92 1.17c-2.042.419-3.842.869-5.4 1.35-.481-.121-.9-.391-1.26-.81-.36-.422-.54-.81-.54-1.17 0-.72.478-1.08 1.44-1.08 2.16 0 4.078-.118 5.76-.36 1.679-.239 3.119-.72 4.32-1.44 1.918-1.198 3.749-2.849 5.49-4.95 1.738-2.098 3.87-5.248 6.39-9.45 2.52-4.199 5.189-8.82 8.01-13.86 2.818-5.04 5.639-10.17 8.46-15.39 2.818-5.22 5.608-10.319 8.37-15.3 2.759-4.978 5.279-9.388 7.56-13.23.239-.599.63-1.049 1.17-1.35.54-.298 1.108-.568 1.71-.81 2.52-.959 5.67-1.738 9.45-2.34 3.78-.599 7.169-.9 10.17-.9.599.242.869.661.81 1.26-.062.602-.27 1.021-.63 1.26zm62.459 56.88c-2.042 2.88-4.441 5.912-7.2 9.09-2.762 3.181-5.642 6.092-8.64 8.73-3.001 2.641-6.061 4.829-9.18 6.57-3.122 1.738-6.061 2.61-8.82 2.61-2.042 0-3.631-.54-4.77-1.62-1.142-1.08-1.71-2.762-1.71-5.04 0-1.08.149-2.309.45-3.69.298-1.378.81-2.908 1.53-4.59-.72.841-1.53 1.831-2.43 2.97-.9 1.142-1.921 2.222-3.06 3.24-1.142 1.021-2.402 1.862-3.78 2.52-1.381.661-2.911.99-4.59.99-1.322 0-2.402-.388-3.24-1.17-.841-.779-1.26-2.008-1.26-3.69 0-.959.208-2.16.63-3.6.419-1.44 1.198-3.389 2.34-5.85 1.139-2.458 2.7-5.518 4.68-9.18 1.98-3.659 4.528-8.19 7.65-13.59.599-1.198 1.139-1.8 1.62-1.8.838 0 1.71.512 2.61 1.53.9 1.021 1.35 1.71 1.35 2.07s-.36 1.08-1.08 2.16c-1.921 2.88-3.721 5.76-5.4 8.64-1.682 2.88-3.15 5.58-4.41 8.1-1.26 2.52-2.281 4.77-3.06 6.75-.782 1.98-1.17 3.51-1.17 4.59 0 1.8.658 2.7 1.98 2.7 1.198 0 2.849-.928 4.95-2.79 2.098-1.859 4.59-5.009 7.47-9.45 1.08-1.918 2.188-3.929 3.33-6.03 1.139-2.098 2.25-4.109 3.33-6.03 1.08-1.918 2.098-3.69 3.06-5.31.959-1.62 1.679-2.849 2.16-3.69.599-.838 1.08-1.26 1.44-1.26.478 0 1.018.512 1.62 1.53.599 1.021.9 2.25.9 3.69 0 .962-.242 1.862-.72 2.7-1.44 2.16-2.97 4.292-4.59 6.39-1.62 2.101-3.122 4.292-4.5 6.57-1.381 2.281-2.551 4.68-3.51 7.2-.962 2.52-1.44 5.282-1.44 8.28 0 2.638 1.26 3.96 3.78 3.96 1.679 0 3.69-.63 6.03-1.89 2.34-1.26 4.888-3.029 7.65-5.31 2.759-2.278 5.608-5.04 8.55-8.28 2.939-3.24 5.729-6.778 8.37-10.62.72-.239 1.08.062 1.08.9z"/><path d="M202.086 60.569c-1.8 2.281-3.842 4.59-6.12 6.93-2.281 2.34-4.621 4.562-7.02 6.66-2.402 2.101-4.86 3.991-7.38 5.67-2.52 1.682-4.922 3.001-7.2 3.96-1.8.72-3.451 1.229-4.95 1.53-1.502.298-2.911.45-4.23.45-6.601 0-9.9-2.759-9.9-8.28 0-2.16.478-4.438 1.44-6.84 2.278-5.639 5.49-10.648 9.63-15.03 4.14-4.379 8.609-7.588 13.41-9.63 1.44-.599 2.638-.9 3.6-.9 4.438 0 6.66 1.741 6.66 5.22 0 1.8-.422 3.181-1.26 4.14-.72.72-1.921 1.741-3.6 3.06l-.54-.18c.36-.959.54-1.98.54-3.06 0-1.198-.45-2.34-1.35-3.42-.9-1.08-2.312-1.62-4.23-1.62-2.281 0-4.472.751-6.57 2.25-2.101 1.502-3.96 3.482-5.58 5.94-1.62 2.461-2.911 5.282-3.87 8.46-.961 3.181-1.44 6.452-1.44 9.81 0 2.52.689 4.41 2.07 5.67 1.378 1.26 3.088 1.89 5.13 1.89 3.358 0 7.889-1.949 13.59-5.85 5.698-3.898 11.79-9.81 18.27-17.73.599-.599 1.049-.748 1.35-.45.298.302.149.751-.45 1.35z"/><path d="M238.985 63.27c-2.042 2.52-4.472 5.13-7.29 7.83-2.821 2.7-5.881 5.161-9.18 7.38-3.302 2.222-6.722 4.022-10.26 5.4-3.541 1.378-7.051 2.07-10.53 2.07-5.642 0-8.46-2.52-8.46-7.56 0-3.358.869-6.989 2.61-10.89 1.738-3.898 3.988-7.498 6.75-10.8 2.759-3.299 5.788-6.058 9.09-8.28 3.299-2.219 6.449-3.33 9.45-3.33 1.679 0 2.849.301 3.51.9.658.602.99 1.381.99 2.34 0 1.44-.45 3.001-1.35 4.68-.9 1.682-2.25 3.271-4.05 4.77-1.8 1.502-4.081 2.762-6.84 3.78-2.762 1.021-6.061 1.53-9.9 1.53-.602 1.08-1.26 2.79-1.98 5.13s-1.08 4.711-1.08 7.11c0 4.922 2.219 7.38 6.66 7.38 2.759 0 5.608-.658 8.55-1.98 2.939-1.319 5.788-2.97 8.55-4.95 2.759-1.98 5.31-4.14 7.65-6.48 2.34-2.34 4.289-4.528 5.85-6.57.239-.239.509-.298.81-.18.298.12.45.36.45.72zm-18.9-14.041c0-1.558-.782-2.34-2.34-2.34-1.201 0-2.43.45-3.69 1.35-1.26.9-2.492 2.07-3.69 3.51-1.201 1.44-2.34 3.001-3.42 4.68-1.08 1.682-1.98 3.302-2.7 4.86.239.121.658.211 1.26.27.599.062 1.08.09 1.44.09 3.479 0 6.539-1.229 9.18-3.69 2.638-2.458 3.96-5.369 3.96-8.73zM4.983 196.636l.45-.3c1.2.6 2.55 1.05 4.05 1.35 1.5.301 2.948.45 4.35.45 3.398 0 6.75-.926 10.05-2.774 3.3-1.852 6.474-4.227 9.525-7.125 3.049-2.902 5.949-6.226 8.7-9.976 2.749-3.75 5.299-7.477 7.65-11.175 2.349-3.701 4.449-7.275 6.3-10.725 1.849-3.45 3.424-6.375 4.725-8.775 0-.799-.3-.9-.9-.3-.9.802-2.376 2.001-4.425 3.6-2.051 1.601-4.5 3.176-7.35 4.726-2.85 1.551-6.052 2.925-9.6 4.125-3.551 1.199-7.275 1.8-11.175 1.8-7.301 0-12.825-1.526-16.575-4.575s-5.625-7.224-5.625-12.525c0-2.1.6-5.198 1.8-9.3 1.2-4.099 3.199-8.498 6-13.2 2.798-4.699 6.473-9.273 11.025-13.725 4.549-4.448 10.174-8.074 16.875-10.875 3.999-1.599 7.973-2.7 11.925-3.3 3.949-.601 7.575-.9 10.875-.9 1.699 0 3.548.101 5.55.3 1.999.202 3.949.525 5.85.976 1.898.45 3.649 1.075 5.25 1.875 1.599.802 2.85 1.751 3.75 2.85-.4 1.702-1.026 3.776-1.875 6.226-.851 2.451-1.676 4.574-2.475 6.375l-1.05.3-.15-.45c.199-.6.349-1.2.45-1.8.098-.601.15-1.249.15-1.95 0-1.8-.525-3.499-1.575-5.1-1.05-1.599-2.475-3-4.275-4.2s-3.9-2.124-6.3-2.775c-2.4-.649-4.95-.975-7.65-.975-5.1 0-9.851 1.075-14.25 3.225-4.401 2.151-8.4 5.025-12 8.625-2.201 2.101-4.551 4.826-7.05 8.175-2.501 3.352-4.826 6.952-6.975 10.801-2.151 3.851-3.926 7.725-5.325 11.625-1.402 3.899-2.1 7.5-2.1 10.8 0 4.001 1.35 7.05 4.05 9.149 2.7 2.101 6.6 3.15 11.7 3.15 4.399 0 8.798-.924 13.2-2.775 4.399-1.849 8.424-4.148 12.075-6.899 3.649-2.749 6.825-5.799 9.525-9.15 2.7-3.349 4.599-6.524 5.7-9.524.398-.999.574-1.749.525-2.25-.052-.5-.626-.75-1.725-.75-1.702.101-3.701.25-6 .449-2.301.202-4.8.401-7.5.601l-.45-.15.45-1.649c2 0 4.224-.05 6.675-.15 2.449-.099 4.898-.225 7.35-.375 2.449-.15 4.8-.398 7.05-.75 2.25-.35 4.275-.725 6.075-1.125.398.3.398.75 0 1.35-1.601.401-2.7.877-3.3 1.426-.6.551-1.251 1.525-1.95 2.925-1.9 3.7-4.076 7.927-6.525 12.675-2.452 4.751-5.001 9.525-7.65 14.325-2.651 4.8-5.325 9.323-8.025 13.575-2.7 4.249-5.25 7.725-7.65 10.425-1.001 1.2-2.426 2.749-4.275 4.649-1.852 1.898-4.076 3.725-6.675 5.476-2.602 1.748-5.602 3.274-9 4.575-3.401 1.298-7.2 1.949-11.4 1.949-1.402 0-2.801-.101-4.2-.3-1.401-.201-2.901-.6-4.5-1.2l-.15-1.056zm110.999-56.7c-2.4 3.102-5.151 6.052-8.25 8.851-3.101 2.801-5.951 5.051-8.55 6.75-2.001 1.301-4.05 2.302-6.15 3-2.1.7-4.001 1.05-5.7 1.05-.6 0-1.301-.049-2.1-.15-.801-.098-1.526-.349-2.175-.75-.652-.398-1.2-.923-1.65-1.574-.45-.649-.675-1.523-.675-2.625 0-1.299.5-3.075 1.5-5.325.999-2.25 2.175-4.575 3.525-6.976 1.35-2.399 2.7-4.699 4.05-6.899 1.35-2.198 2.423-3.849 3.225-4.95.499-.799 1.373-1.475 2.625-2.025 1.249-.548 2.074-.824 2.475-.824.5 0 .75.149.75.449 0 .202-.075.502-.225.9-.15.4-.326.701-.525.9-1.301 2.001-2.625 4.199-3.975 6.6-1.35 2.4-2.576 4.725-3.675 6.975-1.102 2.25-1.976 4.327-2.625 6.226-.651 1.9-.975 3.4-.975 4.5 0 1.2.324 2.076.975 2.625.649.551 1.523.825 2.625.825 2 0 4.2-.676 6.6-2.025s4.774-2.975 7.125-4.875c2.349-1.898 4.523-3.9 6.525-6 2-2.1 3.548-3.9 4.65-5.4.5-.499.773-.623.825-.375.049.248-.026.623-.225 1.122zm-6.75-33.45c0 1.199-.525 2.399-1.575 3.6-1.05 1.2-2.227 1.8-3.525 1.8-1.2 0-1.8-.6-1.8-1.8 0-1.299.474-2.55 1.425-3.75.949-1.2 2.124-1.8 3.525-1.8 1.299 0 1.95.652 1.95 1.95z"/><path d="M141.632 128.986c-.6.7-1.226 1.551-1.875 2.55-.651 1.001-1.076 1.751-1.275 2.25-.101.3-.3.45-.6.45-.101 0-.25-.15-.45-.45-.202-.3-.476-.624-.825-.976-.352-.349-.825-.675-1.425-.975-.6-.3-1.451-.45-2.55-.45-1.301 0-2.751.45-4.35 1.351-1.601.899-3 1.9-4.2 3-1.901 1.601-3.577 3.352-5.025 5.25-1.451 1.9-2.827 3.876-4.125 5.925-1.301 2.051-2.55 4.15-3.75 6.3-1.2 2.151-2.501 4.326-3.9 6.525-.101.3-.4.449-.9.449-.202 0-.625-.3-1.275-.899-.651-.601-.975-1.05-.975-1.351 0-.6.349-1.5 1.05-2.699 1.598-2.799 3.225-5.625 4.875-8.476 1.65-2.85 3.199-5.524 4.65-8.024 1.448-2.499 2.723-4.674 3.825-6.525 1.1-1.85 1.85-3.225 2.25-4.125.5-.9.849-1.35 1.05-1.35.199 0 .698.25 1.5.75.799.501 1.2 1.199 1.2 2.1 0 .3-.176.802-.525 1.5-.352.701-.75 1.425-1.2 2.175-.45.75-.877 1.477-1.275 2.175-.4.701-.701 1.2-.9 1.5-.3.502-.352.75-.15.75.199 0 .45-.149.75-.449.999-.999 2.224-2.101 3.675-3.301 1.449-1.199 2.975-2.324 4.575-3.375 1.599-1.05 3.173-1.924 4.725-2.625 1.549-.698 2.925-1.05 4.125-1.05.9 0 1.673.226 2.325.675.649.45.975.925.975 1.425zm46.05 10.05c-2.302 2.801-4.826 5.625-7.575 8.475-2.751 2.851-5.526 5.426-8.325 7.726-2.801 2.301-5.576 4.15-8.325 5.55-2.751 1.399-5.276 2.1-7.575 2.1-2.001 0-3.401-.501-4.2-1.5-.802-1.001-1.2-2.25-1.2-3.75 0-1.399.424-3.274 1.275-5.625.849-2.349 2.124-4.875 3.825-7.575-1.301 1.702-2.801 3.502-4.5 5.4-1.702 1.9-3.45 3.626-5.25 5.175-1.8 1.552-3.6 2.851-5.4 3.9-1.8 1.05-3.401 1.575-4.8 1.575-2.1 0-3.15-1.051-3.15-3.15 0-2.299.9-5.198 2.7-8.7 1.8-3.499 4.223-6.874 7.275-10.125 3.049-3.248 6.525-6.049 10.425-8.399 3.9-2.349 7.95-3.525 12.15-3.525.5-.998.949-1.699 1.35-2.1.398-.398.799-.699 1.2-.9l4.2-1.2.3.15c-.501.501-.975 1.125-1.425 1.875-.45.75-.926 1.525-1.425 2.325.499 0 1.249.051 2.25.149.999.101 1.749.202 2.25.3.499.202.75.45.75.75 0 .301-.15.45-.45.45-.6-.199-1.5-.349-2.7-.45-1.2-.098-2.1-.149-2.7-.149-4.601 8.1-7.976 14.526-10.125 19.274-2.151 4.751-3.225 8.276-3.225 10.575 0 .9.225 1.65.675 2.25.45.601 1.374.9 2.775.9 1.599 0 3.499-.577 5.7-1.726 2.198-1.148 4.549-2.749 7.05-4.8 2.499-2.048 5.074-4.425 7.725-7.125 2.648-2.7 5.175-5.55 7.575-8.55.199-.3.398-.375.6-.225.199.15.3.375.3.675zm-23.401-11.4c-3.4 0-6.651 1.2-9.75 3.601-3.101 2.399-5.85 5.227-8.25 8.475-2.4 3.251-4.326 6.476-5.775 9.675-1.451 3.202-2.175 5.55-2.175 7.05 0 .802.3 1.2.9 1.2s1.523-.398 2.775-1.2c1.25-.799 2.674-1.875 4.275-3.225 1.599-1.35 3.225-2.925 4.875-4.725 1.65-1.801 3.174-3.75 4.575-5.851 1.599-2.399 3.15-4.95 4.65-7.649 1.5-2.7 2.85-5.101 4.05-7.2l-.15-.151z"/><path d="M249.932 61.786c0 1.401-.551 3.45-1.65 6.15-1.102 2.7-2.677 5.827-4.725 9.375-2.051 3.55-4.552 7.35-7.5 11.4-2.951 4.05-6.3 8.076-10.05 12.075-3.75 4.001-7.875 7.825-12.375 11.475-4.5 3.651-9.301 6.877-14.4 9.675-.9 1.602-2.151 3.75-3.75 6.45-1.601 2.7-3.176 5.55-4.725 8.55-1.551 3-2.901 5.951-4.05 8.851-1.151 2.901-1.725 5.351-1.725 7.35 0 3.202 1.448 4.8 4.35 4.8 2.499 0 5.1-.698 7.8-2.1 2.699-1.399 5.273-3.099 7.725-5.1 2.449-2 4.748-4.125 6.9-6.375 2.148-2.25 3.975-4.275 5.475-6.075.698-.698 1.1-.874 1.2-.525.099.352-.052.727-.45 1.125-1.8 2.201-3.926 4.552-6.375 7.05-2.451 2.501-5.051 4.801-7.8 6.9-2.752 2.1-5.625 3.851-8.625 5.25-3 1.401-6 2.1-9 2.1-2.602 0-4.477-.623-5.625-1.875-1.151-1.249-1.725-2.774-1.725-4.574 0-1.801.773-4.374 2.325-7.726 1.549-3.349 3.375-6.874 5.475-10.575 2.1-3.698 4.2-7.199 6.3-10.5 2.1-3.3 3.649-5.798 4.649-7.5 1.699-2.898 3.474-5.925 5.325-9.074 1.85-3.15 3.675-6.226 5.476-9.226 1.8-3 3.524-5.873 5.175-8.625 1.649-2.749 3.173-5.175 4.575-7.274 1.699-2.6 3.449-5.049 5.25-7.351 1.8-2.299 4.099-4.598 6.899-6.9 3.8-3.199 7.299-5.648 10.5-7.35 3.199-1.699 5.349-2.55 6.45-2.55.799 0 1.448.225 1.95.675.5.449.751 1.124.751 2.024zm-6.75 3.9c0-1.599-.651-2.4-1.95-2.4-.502 0-1.05.15-1.65.45-.6.3-1.375.926-2.324 1.875-.952.952-2.101 2.276-3.45 3.975-1.351 1.702-3.075 3.9-5.175 6.6-.802 1.102-1.927 2.7-3.375 4.8-1.451 2.1-3.301 4.875-5.551 8.324-2.25 3.45-4.949 7.702-8.1 12.75-3.15 5.051-6.877 11.025-11.175 17.926 6-3.398 11.625-7.523 16.875-12.375 5.25-4.85 9.773-9.825 13.575-14.926 3.799-5.1 6.799-10.05 9-14.85 2.198-4.799 3.3-8.849 3.3-12.149z"/><path d="M304.23 59.836c0 .6-.3 1.2-.899 1.8-.601.6-1.001 1.451-1.2 2.55-.202.701-.551 1.05-1.05 1.05-.301 0-.601-.075-.9-.225-.3-.15-.675-.323-1.125-.525-.45-.199-1.001-.375-1.65-.525-.651-.15-1.574-.225-2.774-.225-1.702 0-3.401.225-5.101.675-1.701.45-3.25 1.125-4.649 2.025-2.801 1.8-5.827 4.35-9.075 7.65-3.251 3.3-6.225 6.9-8.925 10.8-6.701 9.601-12.577 18.577-17.625 26.925-5.051 8.352-9.276 15.825-12.675 22.426-3.401 6.6-5.951 12.225-7.65 16.875-1.701 4.649-2.55 8.076-2.55 10.274 0 1.699.375 3.099 1.125 4.2.75 1.1 1.974 1.65 3.675 1.65 2.7 0 5.273-.852 7.725-2.551 2.449-1.701 4.774-3.824 6.976-6.375 2.198-2.55 4.2-5.374 6-8.475 1.8-3.099 3.349-6 4.649-8.7.199-.398.525-.548.976-.45.45.102.424.502-.075 1.2-1.8 3.601-3.727 7.026-5.775 10.275-2.051 3.251-4.199 6.101-6.449 8.55s-4.602 4.373-7.051 5.775c-2.451 1.398-4.875 2.1-7.274 2.1-2.7 0-4.702-.727-6-2.175-1.301-1.451-1.95-3.326-1.95-5.625 0-2.4.474-4.974 1.425-7.726.949-2.749 2.424-6.124 4.425-10.125-2.801 3.401-5.25 6.251-7.35 8.551-2.1 2.301-3.951 4.102-5.55 5.399-1.601 1.301-2.977 2.227-4.125 2.775-1.151.548-2.175.825-3.075.825-1.401 0-2.351-.375-2.85-1.125-.502-.75-.75-1.726-.75-2.926 0-.899.248-2.074.75-3.524.499-1.448 1.199-2.874 2.1-4.275 3.698-6 7.823-10.898 12.375-14.7 4.549-3.799 10.174-6.3 16.875-7.5 4.8-8.399 9.398-15.949 13.8-22.649 4.399-6.698 9.199-13.249 14.4-19.65 4.298-5.4 8.573-10.148 12.825-14.25 4.249-4.099 8.625-7.2 13.125-9.3 3.398-1.599 6.349-2.4 8.85-2.4 1.2 0 2.175.15 2.925.45.746.301 1.121.702 1.121 1.201zm-68.25 68.85c-3.802.102-6.727.825-8.774 2.176-2.051 1.35-3.877 3.025-5.476 5.024-3.802 4.702-6.501 8.726-8.1 12.075-1.601 3.352-2.4 5.826-2.4 7.425 0 .502.199.851.601 1.05.398.202.698.301.899.301.698 0 1.974-.75 3.825-2.25 1.85-1.5 3.9-3.525 6.15-6.075s4.574-5.524 6.975-8.925c2.401-3.399 4.501-7 6.3-10.801z"/><path d="M299.73 134.086c-1.702 2.302-3.776 4.376-6.226 6.225-2.451 1.852-5.227 2.775-8.325 2.775-1.701 0-3.375-.424-5.024-1.275-1.65-.848-2.977-2.123-3.976-3.824-.7 1.601-1.601 3.426-2.699 5.475-1.102 2.051-2.4 4.102-3.9 6.15-1.5 2.051-3.176 3.926-5.025 5.625-1.852 1.701-3.824 3.101-5.925 4.199-1.8.8-3.3 1.2-4.5 1.2-3.6 0-5.399-1.599-5.399-4.8 0-1.8.323-3.649.975-5.55.649-1.898 1.475-3.75 2.475-5.55.999-1.801 2.074-3.5 3.226-5.101 1.148-1.599 2.224-2.899 3.225-3.899 2.101-2.3 4.5-4.25 7.2-5.851 2.7-1.599 5.6-2.55 8.7-2.85.199-.8.499-1.726.899-2.775.398-1.05 1.1-1.673 2.101-1.875.499-.099.998-.199 1.5-.3.499-.099.949-.248 1.35-.45.3-.199.601-.225.9-.075.3.15.349.427.149.825-.7 1.102-1.226 2.501-1.574 4.2-.352 1.701-.525 3.551-.525 5.55 0 2.801.525 5.101 1.575 6.9s2.873 2.7 5.475 2.7c2.6 0 4.95-.849 7.05-2.551 2.101-1.699 3.849-3.548 5.25-5.55.199-.499.525-.649.976-.45.447.204.471.504.072.902zm-24.75 1.05c-.202-.899-.352-1.95-.45-3.149-.101-1.2-.15-2.349-.15-3.45 0-.499-.201-.75-.6-.75-1.102 0-2.25.375-3.45 1.125s-2.4 1.751-3.6 3c-1.2 1.251-2.4 2.677-3.601 4.274-1.2 1.602-2.302 3.251-3.3 4.95-1.301 2.201-2.475 4.575-3.525 7.125-1.05 2.55-1.525 4.976-1.425 7.275 0 .7.124 1.35.375 1.95.249.6.825.899 1.726.899 1.699 0 3.548-.949 5.55-2.85 1.999-1.898 3.899-4.125 5.7-6.675 1.8-2.551 3.323-5.124 4.574-7.726 1.251-2.597 1.974-4.597 2.176-5.998z"/></svg>